# xmcd
#
# Track frame offsets: 
#        150
#        7050
#        28400
#        54325
#        76550
#        98675
#        120100
#        140675
#        156750
#        180475
#        201125
#        226850
#        246050
#        268300
#
# Disc length: 3820 seconds
#
# Revision: 10
# Processed by: cddbd v1.5.2PL0 Copyright (c) Steve Scherf et al.
# Submitted via: ExactAudioCopyFreeDBPlugin 1.0
#
DISCID=ac0eea0e
DTITLE=夏韶聲 -  [諳']2 XRCD
DYEAR=2000
DGENRE=Jazz
TTITLE0=[諳] II 序 (Interlude)
TTITLE1=空凳 (Empty Chair)
TTITLE2=結他低泣時 (Weepin' Guitar)
TTITLE3=車站 (Station)
TTITLE4=永不放棄 (Never Give Up)
TTITLE5=啤酒罐 (Beer Can)
TTITLE6=擔憂 (Worries)
TTITLE7=My friend
TTITLE8=這是愛 (This is Love)
TTITLE9=搖擺心窩 (Rick and Roll Heart)
TTITLE10=交叉點 (Crossroad [studio one take])
TTITLE11=媽媽我沒有做錯 (Mama I Didn't Do Wrong)
TTITLE12=車站 (國語版 Station  [bonus track]) 
TTITLE13=童年時 (Childhood)
EXTD=YEAR: 2000
EXTT0=
EXTT1=
EXTT2=
EXTT3=
EXTT4=
EXTT5=
EXTT6=
EXTT7=
EXTT8=
EXTT9=
EXTT10=
EXTT11=
EXTT12=
EXTT13=
PLAYORDER=
